<?xml version="1.0" standalone="no"?>
<!DOCTYPE svg PUBLIC "-//W3C//DTD SVG 20010904//EN"
 "http://www.w3.org/TR/2001/REC-SVG-20010904/DTD/svg10.dtd">
<svg version="1.0" xmlns="http://www.w3.org/2000/svg"
 width="460.000000pt" height="460.000000pt" viewBox="0 0 460.000000 460.000000"
 preserveAspectRatio="xMidYMid meet">
<metadata>
Created by potrace 1.11, written by Peter Selinger 2001-2013
</metadata>
<g transform="translate(0.000000,460.000000) scale(0.100000,-0.100000)"
fill="#000000" stroke="none">
<path d="M2195 4500 c-4 -6 5 -10 19 -10 14 0 26 5 26 10 0 6 -9 10 -19 10
-11 0 -23 -4 -26 -10z"/>
<path d="M2300 4501 c0 -6 12 -11 27 -11 40 0 16 -16 -36 -24 -35 -5 -42 -4
-38 7 4 11 -4 13 -39 9 -30 -3 -44 -1 -44 7 0 7 -5 9 -12 5 -13 -8 -31 -12
-89 -17 -20 -2 -41 -7 -48 -11 -6 -4 -27 -2 -47 4 -20 7 -65 12 -101 11 -53
-1 -79 -7 -138 -36 -41 -19 -79 -35 -86 -35 -19 0 -175 -164 -190 -200 -8 -19
-31 -65 -52 -104 -20 -39 -54 -105 -74 -145 l-37 -75 2 -200 c2 -226 10 -306
36 -355 10 -18 19 -43 20 -55 1 -11 8 -31 14 -43 7 -13 10 -33 6 -47 -3 -13
-1 -27 5 -30 6 -4 11 -16 11 -26 0 -13 5 -17 15 -14 11 4 15 0 15 -16 0 -16 4
-20 15 -16 12 4 15 -1 13 -22 -3 -23 1 -27 20 -25 14 2 22 -3 22 -12 0 -25 17
-17 39 19 20 31 21 46 19 212 -4 215 5 255 60 287 20 12 41 22 47 23 6 1 26
16 45 34 58 54 80 66 91 49 8 -12 10 -12 19 1 8 13 10 13 10 -1 0 -25 -26 -81
-50 -106 -11 -13 -17 -23 -12 -23 15 0 49 43 76 97 14 28 34 58 44 65 18 12
44 47 105 135 24 35 37 42 37 18 0 -8 5 -15 12 -15 6 0 22 -10 35 -22 27 -25
44 -17 20 10 -20 21 -22 32 -6 32 14 0 39 25 39 39 0 18 6 13 83 -65 54 -54
77 -85 81 -109 4 -19 11 -37 17 -40 11 -7 6 52 -10 129 -12 54 -7 71 13 44 14
-19 38 -5 30 17 -3 7 -1 16 5 20 6 3 11 1 11 -4 0 -6 8 -11 19 -11 16 0 120
-103 174 -172 l18 -23 -5 30 c-2 17 -7 39 -11 50 -3 11 1 8 10 -7 16 -28 35
-37 35 -18 0 6 -11 33 -25 60 -14 28 -23 50 -20 50 3 0 31 -24 63 -53 31 -29
66 -59 78 -67 12 -8 31 -34 43 -58 12 -24 30 -46 39 -49 9 -4 32 -19 50 -35
18 -15 37 -28 42 -28 4 0 15 -3 24 -6 13 -5 16 1 16 28 0 45 7 50 39 33 54
-27 56 -34 62 -254 5 -158 10 -215 23 -245 9 -21 16 -60 16 -86 0 -27 3 -57 7
-67 11 -27 20 53 11 97 -5 24 -3 39 8 51 7 8 14 21 14 27 0 6 7 9 16 5 10 -4
17 1 21 16 3 11 9 21 14 21 5 0 9 14 9 31 0 23 -5 32 -20 36 -23 6 -22 12 17
108 73 177 88 265 62 358 -15 56 -40 189 -40 214 1 12 -3 25 -8 28 -6 3 -15
31 -21 63 -12 53 -40 120 -61 146 -6 6 -28 31 -50 56 -22 25 -47 57 -55 73
-18 34 -142 97 -238 121 -37 9 -98 30 -135 47 -92 43 -291 84 -291 60z m3
-621 c3 -11 1 -18 -4 -14 -5 3 -9 12 -9 20 0 20 7 17 13 -6z m-62 -32 c7 -18
14 -36 17 -40 2 -5 -1 -8 -7 -8 -6 0 -20 18 -31 40 -16 32 -17 40 -6 40 8 0
20 -15 27 -32z m-300 -59 c-16 -35 -61 -82 -61 -63 0 13 62 104 71 104 4 0 0
-18 -10 -41z"/>
<path d="M1856 3413 c-34 -3 -63 -14 -92 -34 -52 -35 -61 -48 -43 -60 11 -8
11 -11 -4 -20 -18 -10 -18 -12 3 -26 12 -9 18 -18 13 -22 -15 -10 -23 -55 -13
-71 8 -13 10 -13 10 2 0 11 6 15 20 11 27 -7 17 -20 -21 -28 -23 -5 -28 -9
-18 -16 14 -8 111 -5 126 4 8 5 172 -9 178 -15 2 -2 1 -15 -2 -30 -6 -30 -19
-38 -83 -45 -49 -5 -57 -9 -46 -20 12 -12 100 -5 156 11 43 13 50 13 50 1 0
-11 7 -10 33 5 83 49 105 119 57 180 -15 19 -31 46 -34 60 -3 14 -3 19 0 12 5
-10 9 -10 20 -1 12 10 11 14 -6 26 -11 8 -20 20 -20 27 0 22 -62 37 -205 50
-16 1 -52 1 -79 -1z m271 -49 c-3 -3 -12 -4 -19 -1 -8 3 -5 6 6 6 11 1 17 -2
13 -5z m-164 -50 c29 -15 30 -18 12 -24 -11 -4 -56 -10 -100 -13 -60 -4 -82
-10 -93 -24 -14 -17 -14 -17 -8 0 3 10 6 23 6 28 0 6 8 9 18 8 42 -4 61 1 56
15 -4 11 4 16 33 19 21 2 39 4 41 5 2 1 17 -5 35 -14z m42 -75 c16 -7 13 -8
-11 -3 -20 3 -54 -3 -90 -17 -33 -11 -70 -23 -84 -26 l-25 -5 25 21 c44 37
138 52 185 30z m-95 -71 c0 -5 -7 -8 -15 -8 -15 0 -20 21 -8 33 7 7 23 -11 23
-25z m150 12 c9 -18 8 -20 -15 -20 -27 0 -28 1 -19 24 8 22 21 20 34 -4z m120
-44 c0 -19 -23 -26 -57 -16 -27 8 -27 8 -3 9 14 1 32 6 40 11 19 13 20 12 20
-4z"/>
<path d="M2655 3405 c-33 -6 -73 -16 -88 -23 -16 -7 -35 -12 -43 -12 -8 0 -23
-19 -33 -42 -10 -24 -27 -52 -38 -63 -26 -28 -33 -51 -20 -64 9 -9 9 -14 -2
-20 -24 -15 -4 -53 59 -116 34 -33 58 -52 54 -42 -3 9 -4 24 -1 31 5 13 10 13
35 0 49 -24 144 -29 192 -10 50 20 70 38 70 63 -1 17 -1 17 -11 0 -11 -19 -26
-10 -47 30 -10 19 -9 23 9 28 12 4 26 2 32 -4 15 -15 84 -14 93 1 11 17 6 78
-7 94 -6 8 -8 25 -5 39 5 18 2 25 -8 25 -8 0 -17 7 -20 16 -4 9 -2 13 5 8 7
-4 10 -1 7 6 -2 7 -19 18 -38 24 -22 7 -35 18 -34 27 2 20 -68 21 -161 4z
m139 -175 c10 -10 -75 10 -88 21 -4 4 11 3 35 -2 24 -6 48 -14 53 -19z m-39
-30 c3 -6 -4 -14 -17 -19 -27 -10 -33 -7 -25 14 7 17 33 20 42 5z m-165 -15
c0 -8 -7 -15 -15 -15 -16 0 -20 12 -8 23 11 12 23 8 23 -8z m100 -34 c0 -5 -9
-7 -21 -4 -12 3 -25 0 -29 -7 -4 -7 -13 -9 -19 -6 -23 14 -10 26 29 26 22 0
40 -4 40 -9z m-145 -21 c-3 -5 -13 -10 -21 -10 -8 0 -12 5 -9 10 3 6 13 10 21
10 8 0 12 -4 9 -10z"/>
<path d="M1317 3203 c-4 -3 -7 -15 -7 -25 0 -18 1 -18 16 -4 8 9 21 13 27 9 7
-4 6 1 -2 10 -14 18 -24 21 -34 10z"/>
<path d="M1432 2888 c2 -6 10 -14 16 -16 7 -2 10 2 6 12 -7 18 -28 22 -22 4z"/>
<path d="M2469 2793 c-13 -14 -18 -23 -11 -19 6 4 12 3 12 -3 0 -6 -14 -18
-31 -26 -24 -13 -29 -20 -23 -37 5 -17 3 -20 -10 -15 -11 5 -16 1 -16 -13 0
-13 7 -20 20 -20 11 0 20 7 20 16 0 10 6 14 18 10 109 -31 100 -31 121 -5 22
26 19 56 -8 76 -13 11 -14 14 -2 22 11 7 7 13 -17 25 -41 21 -44 21 -73 -11z
m38 -9 c-3 -3 -12 -4 -19 -1 -8 3 -5 6 6 6 11 1 17 -2 13 -5z"/>
<path d="M3038 2794 c-5 -4 -8 -16 -8 -28 0 -14 3 -17 11 -9 6 6 9 19 7 28 -1
9 -6 13 -10 9z"/>
<path d="M2220 2780 c-17 -10 -16 -12 29 -34 27 -13 36 -14 43 -4 5 9 1 14
-12 16 -11 2 -20 10 -20 18 0 16 -18 18 -40 4z"/>
<path d="M2310 2753 c0 -6 -3 -18 -6 -27 -3 -9 -2 -16 4 -16 15 0 24 32 12 44
-7 7 -10 7 -10 -1z"/>
<path d="M2735 2710 c-3 -5 1 -10 9 -10 9 0 16 5 16 10 0 6 -4 10 -9 10 -6 0
-13 -4 -16 -10z"/>
<path d="M2173 2695 c-10 -10 -9 -14 2 -18 7 -3 16 1 19 8 7 20 -6 26 -21 10z"/>
<path d="M3026 2692 c-4 -13 -5 -26 -2 -29 10 -11 18 4 14 29 l-4 23 -8 -23z"/>
<path d="M2344 2680 c0 -12 7 -20 18 -20 17 0 17 1 1 20 -10 11 -18 20 -18 20
0 0 -1 -9 -1 -20z"/>
<path d="M2663 2663 c-36 -5 -42 -17 -16 -31 23 -13 9 -47 -15 -36 -44 19
-148 51 -154 47 -26 -15 -108 -28 -134 -21 -41 11 -180 -1 -226 -19 -41 -16
-108 -11 -108 9 0 6 -9 -1 -21 -16 -28 -36 -22 -70 14 -73 16 -1 30 4 33 12 4
10 15 12 36 8 16 -3 40 0 53 7 18 10 51 11 132 5 59 -4 145 -7 189 -6 48 2 85
-2 88 -8 4 -5 21 -20 38 -33 17 -12 28 -17 24 -10 -4 7 -1 12 8 12 10 0 13 -6
9 -17 -6 -15 -1 -14 30 5 20 12 37 18 37 14 0 -4 9 -13 19 -19 22 -13 20 -17
21 60 1 30 4 37 20 37 27 0 25 18 -2 22 -16 2 -23 10 -23 27 0 27 -6 29 -52
24z m-375 -65 c-3 -7 -11 -13 -18 -13 -7 0 -15 6 -17 13 -3 7 4 12 17 12 13 0
20 -5 18 -12z m72 -8 c12 -8 11 -10 -7 -10 -12 0 -25 5 -28 10 -8 13 15 13 35
0z"/>
<path d="M2038 2646 c-15 -11 -15 -13 3 -24 10 -7 19 -8 19 -3 0 5 8 11 18 13
15 4 15 5 -3 15 -15 8 -24 8 -37 -1z"/>
<path d="M2760 2650 c0 -5 5 -10 10 -10 6 0 10 5 10 10 0 6 -4 10 -10 10 -5 0
-10 -4 -10 -10z"/>
<path d="M2378 2460 c-64 -4 -92 -10 -105 -22 -20 -21 -13 -30 22 -30 14 0 25
-6 25 -14 0 -7 9 -16 20 -19 26 -8 146 3 182 17 33 12 44 37 20 44 -9 3 -28
11 -42 17 -31 14 -20 13 -122 7z"/>
<path d="M1504 2308 c-11 -13 -33 -52 -49 -88 -15 -36 -36 -76 -45 -90 -10
-14 -38 -57 -63 -96 -46 -70 -66 -86 -147 -115 -19 -7 -71 -47 -115 -89 -183
-171 -240 -212 -330 -234 -57 -14 -182 -81 -305 -164 -194 -130 -213 -149
-266 -258 -71 -145 -89 -243 -119 -634 -14 -184 -30 -371 -35 -415 -6 -44 -10
-90 -10 -102 l0 -23 1524 0 1525 0 -25 58 c-30 67 -198 403 -247 494 -19 35
-50 92 -70 128 -44 83 -89 166 -142 260 -23 41 -56 104 -75 140 -81 159 -174
326 -185 332 -6 4 -25 26 -41 50 -111 166 -161 221 -524 573 -127 124 -218
231 -228 270 l-7 26 -21 -23z m260 -1957 c4 -5 -3 -7 -14 -4 -11 3 -20 0 -20
-6 0 -6 7 -11 15 -11 18 0 20 -19 3 -21 -74 -7 -97 -1 -82 22 4 8 9 8 17 0 14
-14 40 -14 31 0 -7 12 12 29 33 29 6 0 14 -4 17 -9z"/>
<path d="M1760 2255 c0 -18 -21 -20 -39 -2 -10 10 -11 8 -4 -8 13 -33 37 -65
49 -65 13 0 61 -50 48 -50 -5 -1 2 -7 16 -16 l25 -15 -25 7 c-36 9 -90 42
-128 78 -18 17 -30 24 -27 15 14 -36 88 -85 272 -180 76 -40 140 -75 143 -78
6 -8 303 -204 373 -247 27 -16 68 -41 93 -55 82 -47 154 -137 154 -193 0 -39
18 -31 26 12 4 20 9 41 12 46 3 5 5 30 4 55 -1 25 3 71 8 101 5 30 12 85 15
123 5 45 10 65 18 60 7 -4 8 0 4 11 -4 10 -7 47 -7 84 0 91 -15 69 -34 -48
-16 -96 -43 -222 -45 -206 -1 12 -61 -56 -61 -71 0 -7 -15 -3 -42 10 -51 27
-85 57 -64 57 8 0 16 -5 18 -12 2 -6 9 -8 16 -4 7 4 8 14 3 29 -9 22 6 47 29
47 5 0 10 5 10 10 0 15 -9 12 -43 -12 -25 -18 -29 -19 -24 -5 5 12 1 17 -13
17 -11 0 -20 -7 -20 -16 0 -8 -5 -12 -10 -9 -6 4 -17 1 -25 -5 -11 -9 -22 -7
-52 11 -36 23 -37 23 -13 29 23 5 21 8 -23 29 -44 21 -54 41 -21 41 8 0 12 5
9 10 -4 6 -15 8 -26 5 -23 -8 -25 7 -4 25 12 10 13 16 4 27 -7 7 -9 16 -5 20
3 3 6 2 6 -3 0 -10 120 -11 136 -2 10 6 88 21 121 22 30 2 56 29 58 61 1 27
-5 31 -22 14 -7 -7 -13 -7 -17 -1 -3 6 5 19 19 30 14 11 25 29 25 40 0 11 8
22 19 25 11 3 27 22 36 43 9 21 26 49 37 61 12 13 19 25 17 28 -9 9 -49 -7
-42 -17 3 -6 0 -8 -8 -6 -8 3 -21 0 -29 -8 -48 -41 -138 -76 -212 -83 -61 -5
-78 -4 -78 6 0 15 -26 18 -35 4 -9 -16 -166 -1 -189 18 -7 6 -20 9 -29 5 -19
-7 -100 17 -152 45 -22 11 -47 21 -57 21 -9 0 -18 5 -20 12 -3 8 -9 8 -23 0
-15 -8 -28 -6 -57 9 -37 19 -65 26 -40 10 11 -7 11 -9 -1 -14 -8 -3 -24 3 -36
14 -17 16 -21 17 -21 4z m881 -186 c-9 -22 -10 -22 -10 -3 -1 11 2 24 6 27 12
12 14 0 4 -24z m-20 -42 c-13 -13 -26 -3 -16 12 3 6 11 8 17 5 6 -4 6 -10 -1
-17z m-591 -18 c0 -5 -4 -9 -10 -9 -5 0 -10 7 -10 16 0 8 5 12 10 9 6 -3 10
-10 10 -16z m62 -34 c4 -5 8 0 8 13 0 22 1 22 25 6 23 -15 38 -43 16 -30 -5 4
-11 0 -14 -6 -6 -19 -77 17 -77 38 0 14 2 15 18 3 9 -8 20 -18 24 -24z m518
13 c0 -13 -23 -5 -28 10 -2 7 2 10 12 6 9 -3 16 -11 16 -16z m-300 -38 c0 -5
-2 -10 -4 -10 -3 0 -8 5 -11 10 -3 6 -1 10 4 10 6 0 11 -4 11 -10z m-20 -14
c0 -3 -4 -8 -10 -11 -5 -3 -10 -1 -10 4 0 6 5 11 10 11 6 0 10 -2 10 -4z m47
-42 c-3 -3 -12 -4 -19 -1 -8 3 -5 6 6 6 11 1 17 -2 13 -5z"/>
<path d="M3000 1737 c0 -2 13 -28 30 -58 35 -64 37 -95 9 -185 -18 -59 -20
-82 -14 -171 4 -57 10 -103 15 -103 4 0 10 -24 14 -52 4 -29 11 -66 16 -83 12
-40 30 -153 80 -525 10 -70 34 -323 47 -487 l6 -73 484 0 484 0 -7 38 c-4 20
-15 55 -24 77 -41 90 -108 265 -129 335 -22 73 -48 147 -99 280 -13 36 -39
119 -58 185 -50 179 -75 256 -97 300 -22 45 -86 132 -115 156 -30 25 -134 94
-167 110 -40 20 -76 41 -95 55 -29 22 -380 208 -380 201z"/>
<path d="M2980 1600 c0 -74 -39 -135 -112 -175 -16 -9 -28 -22 -28 -30 0 -8
-20 -39 -45 -70 l-46 -55 21 -43 c18 -37 20 -39 16 -12 -3 17 -7 37 -11 46 -4
11 10 33 44 69 28 29 51 56 51 60 0 15 33 20 47 8 8 -6 26 -33 39 -60 13 -26
28 -48 33 -48 5 0 3 13 -5 30 -9 17 -14 51 -13 82 1 29 -1 61 -6 71 -5 13 -4
16 9 11 12 -5 16 0 17 17 3 59 8 73 25 86 15 11 16 17 8 31 -6 9 -19 18 -28
20 -13 3 -16 -5 -16 -38z"/>
<path d="M2426 1593 c-6 -14 -5 -15 5 -6 7 7 10 15 7 18 -3 3 -9 -2 -12 -12z"/>
<path d="M2372 1503 c-28 -61 -21 -68 8 -8 12 25 20 48 18 50 -2 3 -14 -16
-26 -42z"/>
</g>
</svg>
